<svg width="14" height="15" viewBox="0 0 14 15" fill="none" xmlns="http://www.w3.org/2000/svg">
<path fill-rule="evenodd" clip-rule="evenodd" d="M7 0.5C3.1325 0.5 0 3.71173 0 7.67706C0 10.8529 2.00375 13.5353 4.78625 14.4863C5.13625 14.5491 5.2675 14.3338 5.2675 14.1454C5.2675 13.9749 5.25875 13.4097 5.25875 12.8087C3.5 13.1406 3.045 12.3691 2.905 11.9653C2.82625 11.759 2.485 11.122 2.1875 10.9516C1.9425 10.817 1.5925 10.4851 2.17875 10.4761C2.73 10.4671 3.12375 10.9964 3.255 11.2118C3.885 12.2973 4.89125 11.9923 5.29375 11.8039C5.355 11.3374 5.53875 11.0234 5.74 10.8439C4.1825 10.6645 2.555 10.0455 2.555 7.30026C2.555 6.51976 2.82625 5.87382 3.2725 5.37143C3.2025 5.192 2.9575 4.45635 3.3425 3.46951C3.3425 3.46951 3.92875 3.28111 5.2675 4.20516C5.8275 4.04367 6.4225 3.96293 7.0175 3.96293C7.6125 3.96293 8.2075 4.04367 8.7675 4.20516C10.1062 3.27214 10.6925 3.46951 10.6925 3.46951C11.0775 4.45635 10.8325 5.192 10.7625 5.37143C11.2087 5.87382 11.48 6.51078 11.48 7.30026C11.48 10.0545 9.84375 10.6645 8.28625 10.8439C8.54 11.0682 8.75875 11.4988 8.75875 12.1717C8.75875 13.1316 8.75 13.9032 8.75 14.1454C8.75 14.3338 8.88125 14.5581 9.23125 14.4863C10.6209 14.0053 11.8284 13.0896 12.6838 11.8681C13.5393 10.6466 13.9996 9.18082 14 7.67706C14 3.71173 10.8675 0.5 7 0.5Z" fill="black"/>
</svg>
