<svg width="25" height="25" viewBox="0 0 25 25" fill="none" xmlns="http://www.w3.org/2000/svg">
<path d="M12.4987 2.0835C10.4385 2.0835 8.42452 2.69442 6.71151 3.83902C4.9985 4.98362 3.66337 6.61048 2.87496 8.51388C2.08654 10.4173 1.88026 12.5117 2.28219 14.5324C2.68412 16.553 3.67621 18.4091 5.13301 19.8659C6.5898 21.3227 8.44588 22.3147 10.4665 22.7167C12.4871 23.1186 14.5816 22.9123 16.485 22.1239C18.3884 21.3355 20.0152 20.0004 21.1598 18.2874C22.3044 16.5743 22.9154 14.5604 22.9154 12.5002C22.9154 11.1322 22.6459 9.77769 22.1224 8.51388C21.599 7.25007 20.8317 6.10174 19.8644 5.13447C18.8971 4.16719 17.7488 3.3999 16.485 2.87642C15.2212 2.35293 13.8666 2.0835 12.4987 2.0835ZM15.3216 13.8439C15.4193 13.9408 15.4967 14.056 15.5496 14.1829C15.6025 14.3098 15.6297 14.446 15.6297 14.5835C15.6297 14.721 15.6025 14.8572 15.5496 14.9841C15.4967 15.111 15.4193 15.2262 15.3216 15.3231C15.2248 15.4207 15.1096 15.4982 14.9826 15.5511C14.8557 15.604 14.7195 15.6312 14.582 15.6312C14.4445 15.6312 14.3084 15.604 14.1814 15.5511C14.0545 15.4982 13.9393 15.4207 13.8425 15.3231L12.4987 13.9689L11.155 15.3231C11.0581 15.4207 10.9429 15.4982 10.816 15.5511C10.689 15.604 10.5529 15.6312 10.4154 15.6312C10.2779 15.6312 10.1417 15.604 10.0148 15.5511C9.88783 15.4982 9.77262 15.4207 9.67578 15.3231C9.57815 15.2262 9.50066 15.111 9.44777 14.9841C9.39489 14.8572 9.36766 14.721 9.36766 14.5835C9.36766 14.446 9.39489 14.3098 9.44777 14.1829C9.50066 14.056 9.57815 13.9408 9.67578 13.8439L11.03 12.5002L9.67578 11.1564C9.47963 10.9603 9.36944 10.6942 9.36944 10.4168C9.36944 10.1394 9.47963 9.8734 9.67578 9.67725C9.87193 9.4811 10.138 9.3709 10.4154 9.3709C10.6928 9.3709 10.9588 9.4811 11.155 9.67725L12.4987 11.0314L13.8425 9.67725C14.0386 9.4811 14.3046 9.3709 14.582 9.3709C14.8594 9.3709 15.1255 9.4811 15.3216 9.67725C15.5178 9.8734 15.628 10.1394 15.628 10.4168C15.628 10.6942 15.5178 10.9603 15.3216 11.1564L13.9675 12.5002L15.3216 13.8439Z" fill="white" fill-opacity="0.8"/>
</svg>
