<svg width="28" height="27" viewBox="0 0 28 27" fill="none" xmlns="http://www.w3.org/2000/svg">
<path fill-rule="evenodd" clip-rule="evenodd" d="M14.4253 0C6.96654 0 0.925293 6.04125 0.925293 13.5C0.925293 19.4737 4.78967 24.5194 10.1559 26.3081C10.8309 26.4262 11.084 26.0212 11.084 25.6669C11.084 25.3462 11.0672 24.2831 11.0672 23.1525C7.67529 23.7769 6.79779 22.3256 6.52779 21.5662C6.37592 21.1781 5.71779 19.98 5.14404 19.6594C4.67154 19.4062 3.99654 18.7819 5.12717 18.765C6.19029 18.7481 6.94967 19.7437 7.20279 20.1487C8.41779 22.1906 10.3584 21.6169 11.1347 21.2625C11.2528 20.385 11.6072 19.7944 11.9953 19.4569C8.99154 19.1194 5.85279 17.955 5.85279 12.7912C5.85279 11.3231 6.37592 10.1081 7.23654 9.16312C7.10154 8.82562 6.62904 7.44187 7.37154 5.58562C7.37154 5.58562 8.50217 5.23125 11.084 6.96937C12.164 6.66562 13.3115 6.51375 14.459 6.51375C15.6065 6.51375 16.754 6.66562 17.834 6.96937C20.4159 5.21437 21.5465 5.58562 21.5465 5.58562C22.289 7.44187 21.8165 8.82562 21.6815 9.16312C22.5422 10.1081 23.0653 11.3062 23.0653 12.7912C23.0653 17.9719 19.9097 19.1194 16.9059 19.4569C17.3953 19.8787 17.8172 20.6887 17.8172 21.9544C17.8172 23.76 17.8003 25.2112 17.8003 25.6669C17.8003 26.0212 18.0534 26.4431 18.7284 26.3081C21.4084 25.4033 23.7371 23.6809 25.3869 21.3833C27.0367 19.0857 27.9245 16.3286 27.9253 13.5C27.9253 6.04125 21.884 0 14.4253 0Z" fill="black"/>
</svg>
