<svg width="13" height="15" viewBox="0 0 13 15" fill="none" xmlns="http://www.w3.org/2000/svg">
<path fill-rule="evenodd" clip-rule="evenodd" d="M3.92529 2.75005C3.92529 2.94896 3.84628 3.13973 3.70562 3.28038C3.56497 3.42103 3.37421 3.50005 3.17529 3.50005C2.97638 3.50005 2.78562 3.42103 2.64496 3.28038C2.50431 3.13973 2.42529 2.94896 2.42529 2.75005C2.42529 2.55113 2.50431 2.36037 2.64496 2.21972C2.78562 2.07906 2.97638 2.00005 3.17529 2.00005C3.37421 2.00005 3.56497 2.07906 3.70562 2.21972C3.84628 2.36037 3.92529 2.55113 3.92529 2.75005ZM3.92529 4.87205C4.42571 4.69513 4.84746 4.347 5.11602 3.88919C5.38458 3.43138 5.48264 2.89337 5.39289 2.37025C5.30314 1.84713 5.03134 1.37257 4.62554 1.03047C4.21974 0.688362 3.70606 0.500732 3.17529 0.500732C2.64453 0.500732 2.13085 0.688362 1.72505 1.03047C1.31925 1.37257 1.04745 1.84713 0.957704 2.37025C0.867944 2.89337 0.966014 3.43138 1.23457 3.88919C1.50313 4.347 1.92488 4.69513 2.42529 4.87205V5.75005C2.42529 6.34678 2.66235 6.91908 3.0843 7.34104C3.50626 7.76299 4.07856 8.00005 4.67529 8.00005H6.17529V10.128C5.67461 10.3049 5.25259 10.6532 4.98384 11.1112C4.7151 11.5692 4.61693 12.1075 4.70668 12.6309C4.79644 13.1543 5.06835 13.6291 5.47434 13.9714C5.88033 14.3136 6.39426 14.5014 6.92529 14.5014C7.45633 14.5014 7.97026 14.3136 8.37625 13.9714C8.78224 13.6291 9.0542 13.1543 9.1439 12.6309C9.2337 12.1075 9.13549 11.5692 8.86675 11.1112C8.598 10.6532 8.17598 10.3049 7.67529 10.128V8.00005H9.17529C9.77199 8.00005 10.3443 7.76299 10.7663 7.34104C11.1883 6.91908 11.4253 6.34678 11.4253 5.75005V4.87205C11.9257 4.69513 12.3475 4.347 12.616 3.88919C12.8846 3.43138 12.9827 2.89337 12.8929 2.37025C12.8031 1.84713 12.5314 1.37257 12.1255 1.03047C11.7197 0.688362 11.2061 0.500732 10.6753 0.500732C10.1445 0.500732 9.63089 0.688362 9.22509 1.03047C8.81925 1.37257 8.54745 1.84713 8.4577 2.37025C8.36794 2.89337 8.46601 3.43138 8.73457 3.88919C9.00309 4.347 9.4249 4.69513 9.92529 4.87205V5.75005C9.92529 5.94896 9.8463 6.13973 9.7056 6.28038C9.56499 6.42103 9.3742 6.50005 9.17529 6.50005H4.67529C4.47638 6.50005 4.28562 6.42103 4.14496 6.28038C4.00431 6.13973 3.92529 5.94896 3.92529 5.75005V4.87205ZM7.67529 12.25C7.67529 12.4489 7.59628 12.6397 7.45562 12.7803C7.31497 12.921 7.12421 13 6.92529 13C6.72638 13 6.53562 12.921 6.39496 12.7803C6.25431 12.6397 6.17529 12.4489 6.17529 12.25C6.17529 12.0511 6.25431 11.8603 6.39496 11.7197C6.53562 11.579 6.72638 11.5 6.92529 11.5C7.12421 11.5 7.31497 11.579 7.45562 11.7197C7.59628 11.8603 7.67529 12.0511 7.67529 12.25ZM10.6753 3.50005C10.8742 3.50005 11.065 3.42103 11.2056 3.28038C11.3463 3.13973 11.4253 2.94896 11.4253 2.75005C11.4253 2.55113 11.3463 2.36037 11.2056 2.21972C11.065 2.07906 10.8742 2.00005 10.6753 2.00005C10.4764 2.00005 10.2856 2.07906 10.145 2.21972C10.0043 2.36037 9.92529 2.55113 9.92529 2.75005C9.92529 2.94896 10.0043 3.13973 10.145 3.28038C10.2856 3.42103 10.4764 3.50005 10.6753 3.50005Z" fill="#586069"/>
</svg>
