<svg width="19" height="19" viewBox="0 0 19 19" fill="none" xmlns="http://www.w3.org/2000/svg">
<path fill-rule="evenodd" clip-rule="evenodd" d="M9.92529 0.5C4.95279 0.5 0.925293 4.5275 0.925293 9.5C0.925293 13.4825 3.50154 16.8462 7.07904 18.0387C7.52904 18.1175 7.69779 17.8475 7.69779 17.6112C7.69779 17.3975 7.68654 16.6887 7.68654 15.935C5.42529 16.3512 4.84029 15.3837 4.66029 14.8775C4.55904 14.6187 4.12029 13.82 3.73779 13.6062C3.42279 13.4375 2.97279 13.0212 3.72654 13.01C4.43529 12.9987 4.94154 13.6625 5.11029 13.9325C5.92029 15.2937 7.21404 14.9112 7.73154 14.675C7.81029 14.09 8.04654 13.6962 8.30529 13.4712C6.30279 13.2462 4.21029 12.47 4.21029 9.0275C4.21029 8.04875 4.55904 7.23875 5.13279 6.60875C5.04279 6.38375 4.72779 5.46125 5.22279 4.22375C5.22279 4.22375 5.97654 3.9875 7.69779 5.14625C8.41779 4.94375 9.18279 4.8425 9.94779 4.8425C10.7128 4.8425 11.4778 4.94375 12.1978 5.14625C13.919 3.97625 14.6728 4.22375 14.6728 4.22375C15.1678 5.46125 14.8528 6.38375 14.7628 6.60875C15.3365 7.23875 15.6853 8.0375 15.6853 9.0275C15.6853 12.4812 13.5815 13.2462 11.579 13.4712C11.9053 13.7525 12.1865 14.2925 12.1865 15.1362C12.1865 16.34 12.1753 17.3075 12.1753 17.6112C12.1753 17.8475 12.344 18.1287 12.794 18.0387C14.5807 17.4355 16.1332 16.2873 17.233 14.7555C18.3329 13.2238 18.9248 11.3857 18.9253 9.5C18.9253 4.5275 14.8978 0.5 9.92529 0.5Z" fill="white"/>
</svg>
