<svg width="16" height="15" viewBox="0 0 16 15" fill="none" xmlns="http://www.w3.org/2000/svg">
<path fill-rule="evenodd" clip-rule="evenodd" d="M7.92521 0.75C8.06523 0.74991 8.20247 0.789014 8.32141 0.862887C8.44035 0.93676 8.53623 1.04245 8.59821 1.168L10.4802 4.983L14.6902 5.595C14.8287 5.61511 14.9588 5.67355 15.0657 5.76372C15.1727 5.85388 15.2524 5.97218 15.2956 6.10523C15.3389 6.23829 15.3441 6.3808 15.3106 6.51665C15.2772 6.6525 15.2064 6.77628 15.1062 6.874L12.0602 9.844L12.7792 14.036C12.8029 14.1739 12.7876 14.3157 12.7349 14.4454C12.6822 14.5751 12.5943 14.6874 12.4811 14.7697C12.3679 14.852 12.2339 14.901 12.0943 14.9111C11.9547 14.9212 11.8151 14.8921 11.6912 14.827L7.92521 12.847L4.15921 14.827C4.0354 14.892 3.89588 14.9211 3.7564 14.911C3.61693 14.9009 3.48305 14.852 3.36989 14.7699C3.25674 14.6877 3.1688 14.5755 3.11603 14.446C3.06325 14.3165 3.04772 14.1749 3.07121 14.037L3.79121 9.843L0.743213 6.874C0.642779 6.77632 0.571712 6.65247 0.538065 6.51647C0.504417 6.38047 0.509535 6.23777 0.552837 6.10453C0.59614 5.97129 0.675896 5.85284 0.783069 5.76261C0.890241 5.67238 1.02054 5.61397 1.15921 5.594L5.36921 4.983L7.25221 1.168C7.31419 1.04245 7.41008 0.93676 7.52902 0.862887C7.64796 0.789014 7.7852 0.74991 7.92521 0.75ZM7.92521 3.195L6.54021 6C6.48643 6.1089 6.407 6.20311 6.30876 6.27453C6.21051 6.34595 6.09639 6.39244 5.97621 6.41L2.87921 6.86L5.11921 9.044C5.20636 9.12886 5.27157 9.23365 5.3092 9.34933C5.34683 9.46501 5.35576 9.5881 5.33521 9.708L4.80721 12.792L7.57621 11.336C7.68384 11.2794 7.80362 11.2499 7.92521 11.2499C8.04681 11.2499 8.16658 11.2794 8.27421 11.336L11.0442 12.792L10.5142 9.708C10.4937 9.5881 10.5026 9.46501 10.5402 9.34933C10.5779 9.23365 10.6431 9.12886 10.7302 9.044L12.9702 6.861L9.87421 6.411C9.75403 6.39344 9.63991 6.34695 9.54167 6.27553C9.44342 6.20411 9.364 6.1099 9.31021 6.001L7.92521 3.194V3.195Z" fill="#586069"/>
</svg>
