<svg width="13" height="14" viewBox="0 0 13 14" fill="none" xmlns="http://www.w3.org/2000/svg">
<path fill-rule="evenodd" clip-rule="evenodd" d="M9.42536 4.49998C9.42536 5.16302 9.16196 5.7989 8.69313 6.26774C8.22429 6.73659 7.5884 6.99998 6.92536 6.99998C6.26232 6.99998 5.62644 6.73659 5.1576 6.26774C4.68875 5.7989 4.42536 5.16302 4.42536 4.49998C4.42536 3.83694 4.68875 3.20105 5.1576 2.73221C5.62644 2.26337 6.26232 1.99998 6.92536 1.99998C7.5884 1.99998 8.22429 2.26337 8.69313 2.73221C9.16196 3.20105 9.42536 3.83694 9.42536 4.49998ZM9.48636 7.57298C10.1177 7.04662 10.5715 6.33856 10.7862 5.54512C11.0008 4.75167 10.9657 3.91138 10.6858 3.13856C10.4059 2.36574 9.89466 1.69791 9.22176 1.22592C8.54881 0.753942 7.74681 0.500732 6.92486 0.500732C6.10291 0.500732 5.30091 0.753942 4.62798 1.22592C3.95505 1.69791 3.44385 2.36574 3.16395 3.13856C2.88404 3.91138 2.849 4.75167 3.06361 5.54512C3.27822 6.33856 3.73205 7.04662 4.36336 7.57298C3.37895 8.03838 2.53963 8.76273 1.93526 9.66848C1.33089 10.5743 0.984216 11.6273 0.932356 12.715C0.927536 12.911 0.999636 13.1011 1.13324 13.2445C1.26683 13.388 1.45129 13.4735 1.64713 13.4826C1.84296 13.4918 2.03459 13.4239 2.18098 13.2935C2.32737 13.1631 2.41689 12.9806 2.43036 12.785C2.48488 11.6295 2.98226 10.5394 3.81927 9.74098C4.65627 8.94251 5.7686 8.49705 6.92536 8.49705C8.08212 8.49705 9.19446 8.94251 10.0315 9.74098C10.8685 10.5394 11.3659 11.6295 11.4204 12.785C11.4229 12.8849 11.4452 12.9832 11.4862 13.0743C11.5272 13.1654 11.586 13.2474 11.6591 13.3154C11.7322 13.3835 11.8182 13.4363 11.9119 13.4707C12.0057 13.5051 12.1054 13.5204 12.2052 13.5157C12.305 13.5111 12.4028 13.4865 12.493 13.4435C12.5831 13.4005 12.6638 13.34 12.7302 13.2654C12.7967 13.1908 12.8475 13.1037 12.8798 13.0092C12.9122 12.9147 12.9253 12.8146 12.9184 12.715C12.8664 11.6272 12.5196 10.5741 11.9151 9.66828C11.3105 8.76253 10.471 8.03824 9.48636 7.57298Z" fill="#586069"/>
</svg>
