<svg width="40" height="40" viewBox="0 0 40 40" fill="none" xmlns="http://www.w3.org/2000/svg">
<g clip-path="url(#clip0_816_5454)">
<g clip-path="url(#clip1_816_5454)">
<path fill-rule="evenodd" clip-rule="evenodd" d="M7.79961 4.14941C7.12515 4.66991 6.47629 5.23937 5.85786 5.8578C-1.95262 13.6683 -1.95262 26.3316 5.85786 34.1421C13.6683 41.9526 26.3317 41.9526 34.1421 34.1421C41.9526 26.3316 41.9526 13.6683 34.1421 5.8578C33.5237 5.23937 32.8749 4.66991 32.2004 4.14941L29.5213 6.82853C30.2105 7.32805 30.8694 7.88836 31.4905 8.50945C37.8365 14.8555 37.8365 25.1444 31.4905 31.4904C25.1445 37.8364 14.8555 37.8364 8.50951 31.4904C2.16349 25.1444 2.16349 14.8555 8.50951 8.50945C9.13061 7.88836 9.78948 7.32805 10.4787 6.82853L7.79961 4.14941ZM12.4242 12.4241C13.1564 11.6919 14.3436 11.6919 15.0758 12.4241L20 17.3483L24.9242 12.4241C25.6564 11.6919 26.8436 11.6919 27.5758 12.4241C28.3081 13.1564 28.3081 14.3436 27.5758 15.0758L22.6517 19.9999L27.5758 24.9241C28.3081 25.6563 28.3081 26.8435 27.5758 27.5758C26.8436 28.308 25.6564 28.308 24.9242 27.5758L20 22.6516L15.0758 27.5758C14.3436 28.308 13.1564 28.308 12.4242 27.5758C11.6919 26.8435 11.6919 25.6563 12.4242 24.9241L17.3483 19.9999L12.4242 15.0758C11.6919 14.3435 11.6919 13.1564 12.4242 12.4241Z" fill="#24292E"/>
<path d="M20 10.344L22.6516 7.69234L26.923 3.42083C27.6553 2.6886 27.6553 1.50141 26.923 0.769178C26.1908 0.0369418 25.0036 0.0369417 24.2714 0.769175L20 5.0407L15.7285 0.769176C14.9963 0.0369446 13.8091 0.0369445 13.0769 0.769176C12.3447 1.50141 12.3447 2.68859 13.0769 3.42083L17.3483 7.69234L20 10.344Z" fill="#24292E"/>
</g>
</g>
<defs>
<clipPath id="clip0_816_5454">
<rect width="40" height="40" fill="white" transform="translate(0 40) rotate(-90)"/>
</clipPath>
<clipPath id="clip1_816_5454">
<rect width="40" height="40" fill="white"/>
</clipPath>
</defs>
</svg>
