<svg width="40" height="40" viewBox="0 0 40 40" fill="none" xmlns="http://www.w3.org/2000/svg">
<g clip-path="url(#clip0_816_5500)">
<path fill-rule="evenodd" clip-rule="evenodd" d="M-1.91237e-07 35.625C-8.56199e-08 38.0412 1.95875 40 4.375 40L35.625 40C38.0413 40 40 38.0412 40 35.625L40 4.375C40 1.95875 38.0413 -1.66284e-06 35.625 -1.55722e-06L4.375 -1.91237e-07C1.95875 -8.56199e-08 -1.66284e-06 1.95875 -1.55722e-06 4.375L-1.91237e-07 35.625ZM4.375 36.25C4.02983 36.25 3.75 35.9702 3.75 35.625L3.75 4.375C3.75 4.02975 4.02982 3.75 4.375 3.75L35.625 3.75C35.9702 3.75 36.25 4.02975 36.25 4.375L36.25 35.625C36.25 35.9702 35.9702 36.25 35.625 36.25L4.375 36.25Z" fill="#18253D"/>
<g clip-path="url(#clip1_816_5500)">
<g clip-path="url(#clip2_816_5500)">
<path fill-rule="evenodd" clip-rule="evenodd" d="M33.9565 3.81178C34.4266 3.7709 34.9029 3.75 35.3845 3.75C35.8661 3.75 36.3424 3.7709 36.8125 3.81178C36.9012 3.81948 37.0828 3.90373 37.1544 4.17733L37.8771 6.94055C38.2436 8.3419 39.2499 9.35693 40.3702 9.91183C40.804 10.1267 41.2223 10.3688 41.6225 10.6361C42.664 11.3315 44.0475 11.6959 45.4453 11.3124L48.2025 10.5559C48.4748 10.4812 48.6388 10.5958 48.6903 10.669C49.2365 11.4462 49.716 12.2731 50.121 13.1413C50.158 13.221 50.1763 13.4198 49.975 13.6187L47.938 15.6315C46.9093 16.648 46.5323 18.0252 46.6115 19.2729C46.6268 19.5131 46.6345 19.7555 46.6345 20C46.6345 20.2445 46.6268 20.4869 46.6115 20.7271C46.5323 21.9748 46.9093 23.352 47.938 24.3686L49.975 26.3812C50.1763 26.5802 50.158 26.779 50.121 26.8587C49.716 27.727 49.2365 28.5537 48.6903 29.331C48.6388 29.4042 48.4748 29.5188 48.2025 29.4443L45.4453 28.6875C44.0475 28.304 42.664 28.6685 41.6225 29.364C41.2223 29.6312 40.804 29.8733 40.3702 30.0883C39.2499 30.643 38.2436 31.658 37.8771 33.0595L37.1544 35.8228C37.0828 36.0962 36.9012 36.1805 36.8125 36.1882C36.3424 36.229 35.8661 36.25 35.3845 36.25C34.9029 36.25 34.4266 36.229 33.9565 36.1882C33.8678 36.1805 33.6862 36.0962 33.6146 35.8228L32.8919 33.0592C32.5254 31.658 31.5191 30.643 30.3988 30.0883C29.965 29.8733 29.5469 29.6312 29.1467 29.364C28.1051 28.6685 26.7215 28.304 25.3239 28.6875L22.5665 29.4443C22.2942 29.5188 22.1302 29.4042 22.0787 29.331C21.5325 28.5537 21.053 27.727 20.6481 26.8587C20.6109 26.779 20.5927 26.5802 20.7939 26.3812L22.8311 24.3684C23.8599 23.3519 24.237 21.9747 24.1576 20.7269C24.1424 20.4869 24.1346 20.2444 24.1346 20C24.1346 19.7556 24.1424 19.5131 24.1576 19.2731C24.237 18.0253 23.8599 16.6481 22.8311 15.6316L20.7939 13.6187C20.5927 13.4198 20.6109 13.221 20.6481 13.1414C21.053 12.2731 21.5325 11.4462 22.0787 10.669C22.1302 10.5958 22.2942 10.4812 22.5665 10.5559L25.3239 11.3125C26.7215 11.6959 28.1051 11.3315 29.1467 10.6361C29.5469 10.3689 29.965 10.1267 30.3988 9.91187C31.5191 9.35698 32.5254 8.34195 32.8919 6.94062L33.6146 4.17733C33.6862 3.90373 33.8678 3.81948 33.9565 3.81178ZM35.3845 0C34.7944 0 34.2097 0.0256125 33.6317 0.0758587C31.7748 0.237286 30.4093 1.61261 29.9867 3.22845L29.2639 5.99177C29.2203 6.15872 29.0667 6.3869 28.7343 6.55153C28.1553 6.83833 27.5977 7.1613 27.0643 7.51742C26.7569 7.7227 26.4828 7.74185 26.3162 7.69613L23.5587 6.93953C21.9506 6.4983 20.0802 6.99072 19.0105 8.51287C18.3387 9.46892 17.7483 10.4868 17.2494 11.5566C16.462 13.2452 16.9716 15.1136 18.1582 16.2861L20.1954 18.2991C20.3183 18.4205 20.4386 18.6669 20.4152 19.035C20.3949 19.3543 20.3846 19.6761 20.3846 20C20.3846 20.3239 20.3949 20.6457 20.4152 20.965C20.4386 21.3331 20.3183 21.5795 20.1954 21.7009L18.1582 23.7139C16.9716 24.8864 16.462 26.7548 17.2494 28.4435C17.7483 29.5133 18.3387 30.531 19.0105 31.487C20.0802 33.0093 21.9506 33.5018 23.5587 33.0605L26.3162 32.304C26.4828 32.2583 26.7569 32.2772 27.0643 32.4825C27.5977 32.8387 28.1553 33.1618 28.7343 33.4485C29.0667 33.613 29.2203 33.8413 29.2639 34.0083L29.9867 36.7715C30.4093 38.3875 31.7748 39.7627 33.6317 39.9242C34.2097 39.9745 34.7944 40 35.3845 40C35.9747 40 36.5593 39.9745 37.1373 39.9242C38.9942 39.7627 40.3597 38.3875 40.7823 36.7715L41.505 34.0083C41.5488 33.8413 41.7023 33.6133 42.0348 33.4485C42.6138 33.1618 43.1715 32.8387 43.7048 32.4825C44.0123 32.2772 44.2863 32.2583 44.453 32.304L47.2103 33.0605C48.8185 33.5018 50.6888 33.0093 51.7585 31.4873C52.4303 30.531 53.0208 29.5133 53.5195 28.4435C54.307 26.7548 53.7975 24.8864 52.6108 23.7139L50.5738 21.701C50.4508 21.5797 50.3305 21.3332 50.354 20.9651C50.3743 20.6458 50.3845 20.324 50.3845 20C50.3845 19.676 50.3743 19.3542 50.354 19.0348C50.3305 18.6668 50.4508 18.4203 50.5738 18.299L52.6108 16.2861C53.7975 15.1136 54.307 13.2452 53.5195 11.5565C53.0208 10.4868 52.4303 9.4689 51.7585 8.51287C50.6888 6.9907 48.8185 6.4983 47.2103 6.93953L44.453 7.69607C44.2863 7.7418 44.0123 7.72267 43.7048 7.5174C43.1715 7.16125 42.6138 6.83825 42.0348 6.55142C41.7023 6.38683 41.5488 6.15865 41.505 5.99168L40.7823 3.22845C40.3597 1.6126 38.9942 0.237282 37.1373 0.0758565C36.5593 0.0256117 35.9747 0 35.3845 0ZM39.1345 20C39.1345 22.0711 37.4556 23.75 35.3845 23.75C33.3134 23.75 31.6345 22.0711 31.6345 20C31.6345 17.9289 33.3134 16.25 35.3845 16.25C37.4556 16.25 39.1345 17.9289 39.1345 20ZM42.8845 20C42.8845 24.1421 39.5266 27.5 35.3845 27.5C31.2424 27.5 27.8845 24.1421 27.8845 20C27.8845 15.8579 31.2424 12.5 35.3845 12.5C39.5266 12.5 42.8845 15.8579 42.8845 20Z" fill="#18253D"/>
</g>
</g>
<path d="M-7.38681e-07 20L3.06162 23.1731L7.99357 28.2845C8.83901 29.1607 10.2097 29.1607 11.0552 28.2845C11.9006 27.4083 11.9006 25.9876 11.0552 25.1114L6.12325 20L11.0552 14.8887C11.9006 14.0124 11.9006 12.5918 11.0552 11.7156C10.2097 10.8394 8.83901 10.8394 7.99356 11.7156L3.06163 16.8269L-7.38681e-07 20Z" fill="#18253D"/>
</g>
<defs>
<clipPath id="clip0_816_5500">
<rect width="40" height="40" fill="white" transform="translate(0 40) rotate(-90)"/>
</clipPath>
<clipPath id="clip1_816_5500">
<rect width="40" height="40" fill="white" transform="translate(15.3845 40) rotate(-90)"/>
</clipPath>
<clipPath id="clip2_816_5500">
<rect width="40" height="40" fill="white" transform="translate(15.3845)"/>
</clipPath>
</defs>
</svg>
