<svg width="11" height="12" viewBox="0 0 11 12" fill="none" xmlns="http://www.w3.org/2000/svg">
<path d="M5.5 0.500001C6.95869 0.500001 8.35764 1.07946 9.38909 2.11091C10.4205 3.14236 11 4.54131 11 6C11 7.45869 10.4205 8.85764 9.38909 9.88909C8.35764 10.9205 6.95869 11.5 5.5 11.5C4.04131 11.5 2.64236 10.9205 1.61091 9.88909C0.579463 8.85764 -1.76651e-07 7.45869 -2.40413e-07 6C-3.04174e-07 4.54131 0.579462 3.14236 1.61091 2.11091C2.64236 1.07946 4.04131 0.500001 5.5 0.500001ZM3.09375 5.65625C3.00258 5.65625 2.91515 5.69247 2.85068 5.75693C2.78622 5.8214 2.75 5.90883 2.75 6C2.75 6.09117 2.78622 6.1786 2.85068 6.24307C2.91515 6.30753 3.00258 6.34375 3.09375 6.34375L7.07644 6.34375L5.60038 7.81912C5.53583 7.88367 5.49957 7.97122 5.49957 8.0625C5.49957 8.15378 5.53583 8.24133 5.60038 8.30588C5.66492 8.37042 5.75247 8.40668 5.84375 8.40668C5.93503 8.40668 6.02258 8.37042 6.08713 8.30588L8.14963 6.24337C8.18164 6.21144 8.20704 6.17351 8.22436 6.13175C8.24169 6.08999 8.25061 6.04522 8.25061 6C8.25061 5.95478 8.24169 5.91001 8.22436 5.86825C8.20704 5.82649 8.18164 5.78856 8.14963 5.75663L6.08713 3.69413C6.02258 3.62958 5.93503 3.59332 5.84375 3.59332C5.75247 3.59332 5.66492 3.62958 5.60038 3.69413C5.53583 3.75867 5.49957 3.84622 5.49957 3.9375C5.49957 4.02878 5.53583 4.11633 5.60038 4.18088L7.07644 5.65625L3.09375 5.65625Z" fill="#ACBFE4"/>
</svg>
