<svg width="40" height="40" viewBox="0 0 40 40" fill="none" xmlns="http://www.w3.org/2000/svg">
<g clip-path="url(#clip0_816_5473)">
<path fill-rule="evenodd" clip-rule="evenodd" d="M9.79343 12.7584C9.56262 12.4699 9.24957 12.3078 8.92315 12.3078C8.59673 12.3078 8.28368 12.4699 8.05287 12.7584C7.82205 13.0469 7.69238 13.4382 7.69238 13.8462L7.69238 26.1539C7.69238 26.5619 7.82205 26.9533 8.05287 27.2418C8.28368 27.5303 8.59673 27.6924 8.92315 27.6924C9.24957 27.6924 9.56262 27.5303 9.79343 27.2418C10.0242 26.9533 10.1539 26.5619 10.1539 26.1539L10.1539 21.0578L18.4616 27.3287L18.4616 12.6696L10.1539 18.9424L10.1539 13.8462C10.1539 13.4382 10.0242 13.0469 9.79343 12.7584Z" fill="#18253D"/>
<path fill-rule="evenodd" clip-rule="evenodd" d="M21.5386 27.5385C25.0497 26.8258 27.6924 23.7216 27.6924 20.0001C27.6924 16.2786 25.0497 13.1744 21.5386 12.4617V27.5385Z" fill="#18253D"/>
<path fill-rule="evenodd" clip-rule="evenodd" d="M18.4615 0.0583496C8.1347 0.843926 0 9.47201 0 20.0001C0 30.5281 8.1347 39.1562 18.4615 39.9418V36.0816C10.2616 35.3069 3.84615 28.4027 3.84615 20.0001C3.84615 11.5974 10.2616 4.69323 18.4615 3.91852V0.0583496ZM21.5385 36.0816C29.7384 35.3069 36.1538 28.4027 36.1538 20.0001C36.1538 11.5974 29.7384 4.69323 21.5385 3.91852V0.0583498C31.8653 0.843928 40 9.47201 40 20.0001C40 30.5281 31.8653 39.1562 21.5385 39.9418V36.0816Z" fill="#18253D"/>
</g>
<defs>
<clipPath id="clip0_816_5473">
<rect width="40" height="40" fill="white" transform="translate(0 40) rotate(-90)"/>
</clipPath>
</defs>
</svg>
