<svg width="40" height="40" viewBox="0 0 40 40" fill="none" xmlns="http://www.w3.org/2000/svg">
<path d="M10.3845 28.2031L10.3845 13.72C11.5393 13.3117 12.5126 12.5083 13.1323 11.4519C13.7521 10.3954 13.9784 9.15381 13.7713 7.9466C13.5642 6.7394 12.9369 5.64428 12.0005 4.8548C11.064 4.06533 9.87859 3.63232 8.65374 3.63232C7.4289 3.63232 6.24349 4.06533 5.30703 4.8548C4.37056 5.64428 3.74334 6.7394 3.53621 7.9466C3.32909 9.15381 3.5554 10.3954 4.17515 11.4519C4.7949 12.5083 5.76818 13.3117 6.92298 13.72L6.92298 28.2031C5.76818 28.6114 4.7949 29.4147 4.17515 30.4712C3.5554 31.5277 3.32909 32.7693 3.53621 33.9765C3.74334 35.1837 4.37056 36.2788 5.30703 37.0683C6.24349 37.8577 7.4289 38.2907 8.65374 38.2907C9.87859 38.2907 11.064 37.8577 12.0005 37.0683C12.9369 36.2788 13.5642 35.1837 13.7713 33.9765C13.9784 32.7693 13.7521 31.5277 13.1323 30.4712C12.5126 29.4147 11.5393 28.6114 10.3845 28.2031Z" fill="#18253D"/>
<path d="M34.6154 28.2029L34.6154 10.5767C34.6154 9.65864 34.2507 8.77819 33.6015 8.12902C32.9523 7.47986 32.0719 7.11516 31.1538 7.11516L22.2023 7.11516L24.9473 4.37016L22.5 1.92285L18.0242 6.39862L15.5769 8.84593L18.0242 11.2932L22.5 15.769L24.9473 13.3217L22.2023 10.5767L31.1538 10.5767L31.1538 28.2029C29.999 28.6111 29.0258 29.4145 28.406 30.471C27.7863 31.5275 27.5599 32.769 27.7671 33.9762C27.9742 35.1834 28.6014 36.2786 29.5379 37.068C30.4743 37.8575 31.6598 38.2905 32.8846 38.2905C34.1094 38.2905 35.2949 37.8575 36.2313 37.068C37.1678 36.2786 37.795 35.1834 38.0021 33.9762C38.2093 32.769 37.9829 31.5275 37.3632 30.471C36.7434 29.4145 35.7702 28.6111 34.6154 28.2029Z" fill="#18253D"/>
</svg>
