<svg width="40" height="40" viewBox="0 0 40 40" fill="none" xmlns="http://www.w3.org/2000/svg">
<g clip-path="url(#clip0_816_5579)">
<path d="M24.6155 8.46165C24.6155 4.63814 27.715 1.53857 31.5386 1.53857C35.3621 1.53857 38.4616 4.63814 38.4616 8.46165C38.4616 12.2852 35.3621 15.3847 31.5386 15.3847C27.715 15.3847 24.6155 12.2852 24.6155 8.46165Z" fill="#18253D"/>
<path fill-rule="evenodd" clip-rule="evenodd" d="M-1.91237e-07 35.625C-8.56199e-08 38.0412 1.95875 40 4.375 40L35.625 40C38.0413 40 40 38.0412 40 35.625L40 4.375C40 1.95875 38.0413 -1.66284e-06 35.625 -1.55722e-06L4.375 -1.91237e-07C1.95875 -8.56199e-08 -1.66284e-06 1.95875 -1.55722e-06 4.375L-1.91237e-07 35.625ZM4.375 36.25C4.02983 36.25 3.75 35.9702 3.75 35.625L3.75 4.375C3.75 4.02975 4.02982 3.75 4.375 3.75L35.625 3.75C35.9702 3.75 36.25 4.02975 36.25 4.375L36.25 35.625C36.25 35.9702 35.9702 36.25 35.625 36.25L4.375 36.25Z" fill="#18253D"/>
<path d="M29.2307 8.4615C29.2307 7.187 30.2639 6.15381 31.5384 6.15381C32.8129 6.15381 33.8461 7.187 33.8461 8.4615C33.8461 9.73601 32.8129 10.7692 31.5384 10.7692C30.2639 10.7692 29.2307 9.73601 29.2307 8.4615Z" fill="white"/>
<path d="M7.69238 29.2308C7.69238 28.3812 8.38118 27.6924 9.23084 27.6924V27.6924C10.0805 27.6924 10.7693 28.3812 10.7693 29.2308L10.7693 30.0001C10.7693 30.8497 10.0805 31.5385 9.23084 31.5385V31.5385C8.38118 31.5385 7.69238 30.8497 7.69238 30.0001L7.69238 29.2308Z" fill="#18253D"/>
<path d="M7.69238 19.9999C7.69238 19.1502 8.38118 18.4614 9.23084 18.4614V18.4614C10.0805 18.4614 10.7693 19.1502 10.7693 19.9999L10.7693 20.7691C10.7693 21.6188 10.0805 22.3076 9.23084 22.3076V22.3076C8.38118 22.3076 7.69238 21.6188 7.69238 20.7691L7.69238 19.9999Z" fill="#18253D"/>
<path d="M12.3076 29.6155C12.3076 28.5534 13.1686 27.6924 14.2307 27.6924L30.3845 27.6924C31.4466 27.6924 32.3076 28.5534 32.3076 29.6155V29.6155C32.3076 30.6775 31.4466 31.5385 30.3845 31.5385L14.2307 31.5385C13.1686 31.5385 12.3076 30.6775 12.3076 29.6155V29.6155Z" fill="#18253D"/>
<path d="M12.3076 20.3845C12.3076 19.3224 13.1686 18.4614 14.2307 18.4614L30.3845 18.4614C31.4466 18.4614 32.3076 19.3224 32.3076 20.3845V20.3845C32.3076 21.4466 31.4466 22.3076 30.3845 22.3076L14.2307 22.3076C13.1686 22.3076 12.3076 21.4466 12.3076 20.3845V20.3845Z" fill="#18253D"/>
<path d="M6.15381 8.4615C6.15381 7.187 7.187 6.15381 8.4615 6.15381L16.1538 6.15381C17.4283 6.15381 18.4615 7.187 18.4615 8.4615V8.4615C18.4615 9.73601 17.4283 10.7692 16.1538 10.7692L8.4615 10.7692C7.187 10.7692 6.15381 9.73601 6.15381 8.4615V8.4615Z" fill="#18253D"/>
</g>
<defs>
<clipPath id="clip0_816_5579">
<rect width="40" height="40" fill="white" transform="translate(0 40) rotate(-90)"/>
</clipPath>
</defs>
</svg>
