<svg width="24" height="24" viewBox="0 0 24 24" fill="none" xmlns="http://www.w3.org/2000/svg">
<path d="M12 0C5.37321 0 0 5.37321 0 12C0 18.6268 5.37321 24 12 24C18.6268 24 24 18.6268 24 12C24 5.37321 18.6268 0 12 0ZM7.96875 13.8268C7.96875 14.5714 7.36607 15.1768 6.62143 15.1768C6.26518 15.1768 5.92232 15.0348 5.66786 14.7804C5.41607 14.5259 5.27411 14.183 5.27411 13.8268C5.27411 13.0821 5.87679 12.4768 6.62143 12.4768H7.96875V13.8268ZM11.558 17.4268C11.558 18.1714 10.9554 18.7768 10.2107 18.7768C9.46607 18.7768 8.86339 18.1714 8.86339 17.4268V13.8268C8.86339 13.0821 9.46607 12.4768 10.2107 12.4768C10.567 12.4768 10.9098 12.6187 11.1643 12.8732C11.4187 13.1277 11.558 13.4705 11.558 13.8268V17.4268ZM10.2134 11.5768H6.62411C5.87946 11.5768 5.27679 10.9714 5.27679 10.2268C5.27679 9.48214 5.87946 8.87679 6.62411 8.87679H10.2134C10.958 8.87679 11.5607 9.48214 11.5607 10.2268C11.558 10.9741 10.9554 11.5768 10.2134 11.5768ZM10.2134 7.97679C9.85714 7.97679 9.51429 7.83482 9.25982 7.58036C9.00536 7.32589 8.86607 6.98571 8.86607 6.62679C8.86607 5.88214 9.46875 5.27679 10.2134 5.27679C10.958 5.27679 11.5607 5.88214 11.5607 6.62679V7.97679H10.2134ZM12.4554 6.62679C12.4554 5.88214 13.058 5.27679 13.8027 5.27679C14.5473 5.27679 15.15 5.88214 15.15 6.62679V10.2268C15.15 10.9714 14.5473 11.5768 13.8027 11.5768C13.058 11.5768 12.4554 10.9714 12.4554 10.2268V6.62679ZM13.8027 18.7768C13.058 18.7768 12.4554 18.1714 12.4554 17.4268V16.0768H13.8027C14.5473 16.0768 15.15 16.6821 15.15 17.4268C15.15 18.1714 14.5473 18.7768 13.8027 18.7768ZM17.392 15.1768H13.8027C13.4464 15.1768 13.1036 15.0348 12.8491 14.7804C12.5946 14.5259 12.4554 14.1857 12.4554 13.8268C12.4554 13.0821 13.058 12.4768 13.8027 12.4768H17.392C18.1366 12.4768 18.7393 13.0821 18.7393 13.8268C18.7393 14.5714 18.1366 15.1768 17.392 15.1768ZM17.392 11.5768H16.0446V10.2268C16.0446 9.48214 16.6473 8.87679 17.392 8.87679C18.1366 8.87679 18.7393 9.48214 18.7393 10.2268C18.7393 10.9714 18.1366 11.5768 17.392 11.5768Z" fill="#7D93BD"/>
</svg>
