<svg width="52" height="29" viewBox="0 0 52 29" fill="none" xmlns="http://www.w3.org/2000/svg">
<path d="M5.05859 9.05664C5.05859 9.47982 4.95443 9.8444 4.74609 10.1504C4.54102 10.4564 4.24479 10.6908 3.85742 10.8535C3.47331 11.0163 3.01432 11.0977 2.48047 11.0977C2.22005 11.0977 1.97103 11.083 1.7334 11.0537C1.49577 11.0244 1.27116 10.9821 1.05957 10.9268C0.851237 10.8682 0.660807 10.7982 0.488281 10.7168V9.61328C0.777995 9.74023 1.10189 9.85579 1.45996 9.95996C1.81803 10.0609 2.18262 10.1113 2.55371 10.1113C2.85645 10.1113 3.1071 10.0723 3.30566 9.99414C3.50749 9.91276 3.65723 9.79883 3.75488 9.65234C3.85254 9.5026 3.90137 9.32845 3.90137 9.12988C3.90137 8.91829 3.8444 8.73926 3.73047 8.59277C3.61654 8.44629 3.44401 8.31283 3.21289 8.19238C2.98503 8.06868 2.69857 7.93685 2.35352 7.79688C2.11914 7.70247 1.89453 7.59505 1.67969 7.47461C1.4681 7.35417 1.2793 7.21257 1.11328 7.0498C0.947266 6.88704 0.81543 6.69499 0.717773 6.47363C0.623372 6.24902 0.576172 5.98535 0.576172 5.68262C0.576172 5.27897 0.672201 4.93392 0.864258 4.64746C1.05957 4.361 1.33301 4.14128 1.68457 3.98828C2.03939 3.83529 2.4528 3.75879 2.9248 3.75879C3.29915 3.75879 3.65072 3.79785 3.97949 3.87598C4.31152 3.9541 4.63704 4.06478 4.95605 4.20801L4.58496 5.15039C4.29199 5.02995 4.00716 4.93392 3.73047 4.8623C3.45703 4.79069 3.17708 4.75488 2.89062 4.75488C2.64323 4.75488 2.43327 4.79232 2.26074 4.86719C2.08822 4.94206 1.95638 5.04785 1.86523 5.18457C1.77734 5.31803 1.7334 5.47754 1.7334 5.66309C1.7334 5.87142 1.78385 6.0472 1.88477 6.19043C1.98893 6.3304 2.14844 6.45898 2.36328 6.57617C2.58138 6.69336 2.86133 6.82357 3.20312 6.9668C3.59701 7.12956 3.93066 7.30046 4.2041 7.47949C4.48079 7.65853 4.69238 7.87337 4.83887 8.12402C4.98535 8.37142 5.05859 8.68229 5.05859 9.05664ZM9.0918 5.49219C9.73307 5.49219 10.2474 5.72656 10.6348 6.19531C11.0254 6.66406 11.2207 7.36068 11.2207 8.28516C11.2207 8.89714 11.1296 9.41309 10.9473 9.83301C10.7682 10.2497 10.516 10.5654 10.1904 10.7803C9.86816 10.9919 9.49219 11.0977 9.0625 11.0977C8.78906 11.0977 8.55143 11.0618 8.34961 10.9902C8.14779 10.9186 7.97526 10.8258 7.83203 10.7119C7.6888 10.5947 7.56836 10.4678 7.4707 10.3311H7.40234C7.41862 10.4613 7.43327 10.6061 7.44629 10.7656C7.46257 10.9219 7.4707 11.0651 7.4707 11.1953V13.3975H6.31836V5.59473H7.25586L7.41699 6.3418H7.4707C7.57161 6.1888 7.69368 6.0472 7.83691 5.91699C7.9834 5.78678 8.15918 5.68424 8.36426 5.60938C8.57259 5.53125 8.8151 5.49219 9.0918 5.49219ZM8.78418 6.42969C8.46842 6.42969 8.21452 6.49316 8.02246 6.62012C7.83366 6.74382 7.69531 6.93099 7.60742 7.18164C7.52279 7.43229 7.47721 7.74642 7.4707 8.12402V8.28516C7.4707 8.68555 7.51139 9.02572 7.59277 9.30566C7.67741 9.58236 7.81576 9.79395 8.00781 9.94043C8.20312 10.0837 8.4668 10.1553 8.79883 10.1553C9.07878 10.1553 9.3099 10.0788 9.49219 9.92578C9.67773 9.77279 9.81608 9.55469 9.90723 9.27148C9.99837 8.98828 10.0439 8.65462 10.0439 8.27051C10.0439 7.68783 9.93978 7.23535 9.73145 6.91309C9.52637 6.59082 9.21061 6.42969 8.78418 6.42969ZM17.334 8.28516C17.334 8.73438 17.2754 9.13314 17.1582 9.48145C17.041 9.82975 16.8701 10.1243 16.6455 10.3652C16.4209 10.6029 16.1507 10.7852 15.835 10.9121C15.5192 11.0358 15.1628 11.0977 14.7656 11.0977C14.3945 11.0977 14.0544 11.0358 13.7451 10.9121C13.4359 10.7852 13.1673 10.6029 12.9395 10.3652C12.7148 10.1243 12.5407 9.82975 12.417 9.48145C12.2933 9.13314 12.2314 8.73438 12.2314 8.28516C12.2314 7.68945 12.334 7.1849 12.5391 6.77148C12.7474 6.35482 13.0436 6.03743 13.4277 5.81934C13.8118 5.60124 14.2692 5.49219 14.7998 5.49219C15.2979 5.49219 15.7373 5.60124 16.1182 5.81934C16.499 6.03743 16.7969 6.35482 17.0117 6.77148C17.2266 7.18815 17.334 7.69271 17.334 8.28516ZM13.4131 8.28516C13.4131 8.67904 13.4603 9.01595 13.5547 9.2959C13.6523 9.57585 13.8021 9.79069 14.0039 9.94043C14.2057 10.0869 14.4661 10.1602 14.7852 10.1602C15.1042 10.1602 15.3646 10.0869 15.5664 9.94043C15.7682 9.79069 15.9163 9.57585 16.0107 9.2959C16.1051 9.01595 16.1523 8.67904 16.1523 8.28516C16.1523 7.89128 16.1051 7.55762 16.0107 7.28418C15.9163 7.00749 15.7682 6.79753 15.5664 6.6543C15.3646 6.50781 15.1025 6.43457 14.7803 6.43457C14.305 6.43457 13.9583 6.59408 13.7402 6.91309C13.5221 7.2321 13.4131 7.68945 13.4131 8.28516ZM21.4697 5.49219C22.0785 5.49219 22.5521 5.65007 22.8906 5.96582C23.2324 6.27832 23.4033 6.78125 23.4033 7.47461V11H22.2559V7.68945C22.2559 7.26953 22.1696 6.9554 21.9971 6.74707C21.8245 6.53548 21.5576 6.42969 21.1963 6.42969C20.6722 6.42969 20.3076 6.59082 20.1025 6.91309C19.9007 7.23535 19.7998 7.70247 19.7998 8.31445V11H18.6523V5.59473H19.5459L19.707 6.32715H19.7705C19.8877 6.13835 20.0326 5.98372 20.2051 5.86328C20.3809 5.73958 20.5762 5.64681 20.791 5.58496C21.0091 5.52311 21.2354 5.49219 21.4697 5.49219ZM28.6426 9.45703C28.6426 9.81185 28.5563 10.1113 28.3838 10.3555C28.2113 10.5996 27.959 10.7852 27.627 10.9121C27.2982 11.0358 26.8945 11.0977 26.416 11.0977C26.0384 11.0977 25.7129 11.07 25.4395 11.0146C25.1693 10.9626 24.9137 10.8812 24.6729 10.7705V9.7793C24.93 9.89974 25.2181 10.0039 25.5371 10.0918C25.8594 10.1797 26.1637 10.2236 26.4502 10.2236C26.8278 10.2236 27.0996 10.165 27.2656 10.0479C27.4316 9.92741 27.5146 9.7679 27.5146 9.56934C27.5146 9.45215 27.4805 9.34798 27.4121 9.25684C27.347 9.16243 27.2233 9.06641 27.041 8.96875C26.862 8.86784 26.5983 8.7474 26.25 8.60742C25.9082 8.4707 25.6201 8.33398 25.3857 8.19727C25.1514 8.06055 24.974 7.89616 24.8535 7.7041C24.7331 7.50879 24.6729 7.25977 24.6729 6.95703C24.6729 6.47852 24.8617 6.11556 25.2393 5.86816C25.6201 5.61751 26.123 5.49219 26.748 5.49219C27.0801 5.49219 27.3926 5.52637 27.6855 5.59473C27.9818 5.65983 28.2715 5.75586 28.5547 5.88281L28.1934 6.74707C27.9492 6.63965 27.7035 6.55176 27.4561 6.4834C27.2119 6.41178 26.9629 6.37598 26.709 6.37598C26.4128 6.37598 26.1865 6.42155 26.0303 6.5127C25.8773 6.60384 25.8008 6.73405 25.8008 6.90332C25.8008 7.03027 25.8382 7.1377 25.9131 7.22559C25.988 7.31348 26.1165 7.40137 26.2988 7.48926C26.4844 7.57715 26.7415 7.6862 27.0703 7.81641C27.3926 7.9401 27.6709 8.07031 27.9053 8.20703C28.1429 8.34049 28.3252 8.50488 28.4521 8.7002C28.5791 8.89551 28.6426 9.14779 28.6426 9.45703ZM34.668 8.28516C34.668 8.73438 34.6094 9.13314 34.4922 9.48145C34.375 9.82975 34.2041 10.1243 33.9795 10.3652C33.7549 10.6029 33.4847 10.7852 33.1689 10.9121C32.8532 11.0358 32.4967 11.0977 32.0996 11.0977C31.7285 11.0977 31.3883 11.0358 31.0791 10.9121C30.7699 10.7852 30.5013 10.6029 30.2734 10.3652C30.0488 10.1243 29.8747 9.82975 29.751 9.48145C29.6273 9.13314 29.5654 8.73438 29.5654 8.28516C29.5654 7.68945 29.668 7.1849 29.873 6.77148C30.0814 6.35482 30.3776 6.03743 30.7617 5.81934C31.1458 5.60124 31.6032 5.49219 32.1338 5.49219C32.6318 5.49219 33.0713 5.60124 33.4521 5.81934C33.833 6.03743 34.1309 6.35482 34.3457 6.77148C34.5605 7.18815 34.668 7.69271 34.668 8.28516ZM30.7471 8.28516C30.7471 8.67904 30.7943 9.01595 30.8887 9.2959C30.9863 9.57585 31.1361 9.79069 31.3379 9.94043C31.5397 10.0869 31.8001 10.1602 32.1191 10.1602C32.4382 10.1602 32.6986 10.0869 32.9004 9.94043C33.1022 9.79069 33.2503 9.57585 33.3447 9.2959C33.4391 9.01595 33.4863 8.67904 33.4863 8.28516C33.4863 7.89128 33.4391 7.55762 33.3447 7.28418C33.2503 7.00749 33.1022 6.79753 32.9004 6.6543C32.6986 6.50781 32.4365 6.43457 32.1143 6.43457C31.639 6.43457 31.2923 6.59408 31.0742 6.91309C30.8561 7.2321 30.7471 7.68945 30.7471 8.28516ZM38.7256 5.49219C38.8167 5.49219 38.916 5.49707 39.0234 5.50684C39.1309 5.5166 39.2236 5.52962 39.3018 5.5459L39.1943 6.62012C39.126 6.60059 39.0413 6.58594 38.9404 6.57617C38.8428 6.56641 38.7549 6.56152 38.6768 6.56152C38.4717 6.56152 38.2764 6.5957 38.0908 6.66406C37.9053 6.72917 37.7409 6.83008 37.5977 6.9668C37.4544 7.10026 37.3421 7.2679 37.2607 7.46973C37.1794 7.67155 37.1387 7.90592 37.1387 8.17285V11H35.9863V5.59473H36.8848L37.041 6.54688H37.0947C37.2021 6.35482 37.3356 6.17904 37.4951 6.01953C37.6546 5.86003 37.8369 5.73307 38.042 5.63867C38.2503 5.54102 38.4782 5.49219 38.7256 5.49219ZM42.4561 5.49219C42.9378 5.49219 43.3512 5.59147 43.6963 5.79004C44.0413 5.98861 44.3066 6.27018 44.4922 6.63477C44.6777 6.99935 44.7705 7.43555 44.7705 7.94336V8.55859H41.1621C41.1751 9.08268 41.3151 9.48633 41.582 9.76953C41.8522 10.0527 42.2298 10.1943 42.7148 10.1943C43.0599 10.1943 43.3691 10.1618 43.6426 10.0967C43.9193 10.0283 44.2041 9.92904 44.4971 9.79883V10.7314C44.2269 10.8584 43.9518 10.9512 43.6719 11.0098C43.3919 11.0684 43.0566 11.0977 42.666 11.0977C42.1354 11.0977 41.6683 10.9951 41.2646 10.79C40.8643 10.5817 40.5501 10.2725 40.3223 9.8623C40.0977 9.45215 39.9854 8.94271 39.9854 8.33398C39.9854 7.72852 40.0879 7.21419 40.293 6.79102C40.498 6.36784 40.7861 6.04557 41.1572 5.82422C41.5283 5.60286 41.9613 5.49219 42.4561 5.49219ZM42.4561 6.35645C42.0947 6.35645 41.8018 6.47363 41.5771 6.70801C41.3558 6.94238 41.2256 7.28581 41.1865 7.73828H43.6475C43.6442 7.4681 43.5986 7.22884 43.5107 7.02051C43.4261 6.81217 43.2959 6.64941 43.1201 6.53223C42.9476 6.41504 42.7262 6.35645 42.4561 6.35645ZM47.8809 11.0977C47.2363 11.0977 46.7188 10.8633 46.3281 10.3945C45.9408 9.92253 45.7471 9.22754 45.7471 8.30957C45.7471 7.38184 45.944 6.68034 46.3379 6.20508C46.735 5.72982 47.2575 5.49219 47.9053 5.49219C48.1787 5.49219 48.418 5.52962 48.623 5.60449C48.8281 5.67611 49.0039 5.77376 49.1504 5.89746C49.3001 6.02116 49.4271 6.15951 49.5312 6.3125H49.585C49.5687 6.21159 49.5492 6.06673 49.5264 5.87793C49.5068 5.68587 49.4971 5.50846 49.4971 5.3457V3.40234H50.6494V11H49.751L49.5459 10.2627H49.4971C49.3994 10.4189 49.2757 10.5605 49.126 10.6875C48.9795 10.8112 48.8037 10.9105 48.5986 10.9854C48.3968 11.0602 48.1576 11.0977 47.8809 11.0977ZM48.2031 10.165C48.6947 10.165 49.0413 10.0234 49.2432 9.74023C49.445 9.45703 49.5492 9.03223 49.5557 8.46582V8.31445C49.5557 7.70898 49.458 7.24512 49.2627 6.92285C49.0674 6.59733 48.7109 6.43457 48.1934 6.43457C47.7799 6.43457 47.4642 6.60221 47.2461 6.9375C47.0312 7.26953 46.9238 7.7334 46.9238 8.3291C46.9238 8.9248 47.0312 9.38053 47.2461 9.69629C47.4642 10.0088 47.7832 10.165 48.2031 10.165ZM1.96777 17.4023V19.2334C1.96777 19.445 1.96126 19.6533 1.94824 19.8584C1.93848 20.0602 1.92871 20.2181 1.91895 20.332H1.96777C2.11426 20.0977 2.31771 19.9007 2.57812 19.7412C2.8418 19.5785 3.17871 19.4971 3.58887 19.4971C4.23014 19.4971 4.74609 19.7331 5.13672 20.2051C5.52734 20.6738 5.72266 21.3688 5.72266 22.29C5.72266 22.902 5.63314 23.4163 5.4541 23.833C5.27507 24.2497 5.02279 24.5654 4.69727 24.7803C4.375 24.9919 3.99577 25.0977 3.55957 25.0977C3.14941 25.0977 2.81738 25.0228 2.56348 24.873C2.31283 24.7201 2.11589 24.5426 1.97266 24.3408H1.88965L1.67969 25H0.820312V17.4023H1.96777ZM3.28613 20.4297C2.96061 20.4297 2.70182 20.4948 2.50977 20.625C2.32096 20.7552 2.18424 20.9505 2.09961 21.2109C2.01497 21.4681 1.97103 21.7952 1.96777 22.1924V22.2949C1.96777 22.8971 2.06217 23.3577 2.25098 23.6768C2.44303 23.9958 2.79134 24.1553 3.2959 24.1553C3.69629 24.1553 4.00391 23.9941 4.21875 23.6719C4.43359 23.3464 4.54102 22.8809 4.54102 22.2754C4.54102 21.6634 4.43359 21.2028 4.21875 20.8936C4.00716 20.5843 3.69629 20.4297 3.28613 20.4297ZM6.23535 19.5947H7.48535L8.59375 22.6807C8.64258 22.8206 8.68652 22.959 8.72559 23.0957C8.7679 23.2292 8.80371 23.361 8.83301 23.4912C8.86556 23.6214 8.8916 23.7516 8.91113 23.8818H8.94043C8.97298 23.7126 9.01855 23.5238 9.07715 23.3154C9.139 23.1038 9.20736 22.8923 9.28223 22.6807L10.3467 19.5947H11.582L9.2627 25.7422C9.12923 26.0938 8.96484 26.3932 8.76953 26.6406C8.57747 26.8913 8.34961 27.0801 8.08594 27.207C7.82227 27.3372 7.52116 27.4023 7.18262 27.4023C7.01986 27.4023 6.87826 27.3926 6.75781 27.373C6.63737 27.3568 6.53483 27.3389 6.4502 27.3193V26.4014C6.51855 26.4176 6.60482 26.4323 6.70898 26.4453C6.81315 26.4583 6.92057 26.4648 7.03125 26.4648C7.23633 26.4648 7.41374 26.4242 7.56348 26.3428C7.71322 26.2614 7.84017 26.1458 7.94434 25.9961C8.0485 25.8496 8.13477 25.682 8.20312 25.4932L8.39355 24.9854L6.23535 19.5947Z" fill="white"/>
<path d="M20.9568 25.4573C20.9856 25.4735 21.0095 25.497 21.026 25.5253C21.0426 25.5536 21.0512 25.5857 21.0511 25.6184C21.0509 25.6511 21.0419 25.6832 21.0251 25.7114C21.0082 25.7395 20.9841 25.7627 20.9552 25.7787L20.1167 26.2471L20.1105 26.2433L18.8075 26.9882C18.7506 27.0207 18.6859 27.0379 18.6201 27.0379C18.5543 27.0379 18.4896 27.0207 18.4327 26.9882L16.7476 26.0272C16.5201 25.8976 16.3313 25.7112 16.2001 25.4868C16.0689 25.2623 15.9999 25.0077 16 24.7486V19.2097C16.0001 18.9484 16.0705 18.6918 16.204 18.4663C16.3376 18.2407 16.5295 18.0541 16.76 17.9257L16.8445 17.8785C16.8877 17.8544 16.9389 17.8482 16.9868 17.8612C17.0347 17.8743 17.0753 17.9056 17.0999 17.9482C17.1159 17.9759 17.1242 18.0073 17.124 18.0392V24.8689C17.1239 24.9014 17.1324 24.9333 17.1487 24.9615C17.1651 24.9897 17.1887 25.0132 17.2171 25.0296L18.1534 25.5682C18.1818 25.5843 18.214 25.5928 18.2469 25.5928C18.2797 25.5928 18.3119 25.5843 18.3404 25.5682L18.3523 25.5615C18.3809 25.5453 18.4046 25.522 18.421 25.4939C18.4375 25.4658 18.4462 25.4339 18.4462 25.4014C18.4462 25.369 18.4375 25.3371 18.421 25.309C18.4046 25.2809 18.3809 25.2576 18.3523 25.2414L17.5904 24.8073C17.5618 24.791 17.5382 24.7675 17.5218 24.7393C17.5054 24.7111 17.4968 24.6791 17.497 24.6466V17.716C17.497 17.6506 17.5146 17.5864 17.548 17.5299C17.5813 17.4735 17.6293 17.4267 17.687 17.3946L18.3409 17.0293C18.3842 17.0052 18.4353 16.999 18.4832 17.0121C18.5311 17.0251 18.5717 17.0563 18.5963 17.0989C18.6123 17.1265 18.6206 17.1577 18.6205 17.1894V24.019C18.6203 24.0516 18.6289 24.0836 18.6453 24.1118C18.6617 24.14 18.6853 24.1634 18.7139 24.1797L20.9568 25.4573Z" fill="white"/>
<path d="M20.4012 23.4401C20.3582 23.4157 20.3267 23.3754 20.3136 23.3281C20.3005 23.2808 20.3069 23.2304 20.3315 23.1878C20.3481 23.1587 20.3726 23.1347 20.4021 23.1184L22.269 22.0366C22.2973 22.0202 22.3208 21.9967 22.337 21.9685C22.3532 21.9403 22.3616 21.9084 22.3613 21.8759V15.3701C22.3614 15.3216 22.3518 15.2734 22.333 15.2285C22.3142 15.1836 22.2866 15.1428 22.2518 15.1084C22.217 15.0741 22.1757 15.0468 22.1302 15.0282C22.0847 15.0096 22.036 15 21.9867 15C21.9204 14.9999 21.8552 15.0174 21.7981 15.0506L20.1151 16.022L19.1822 16.544C19.1246 16.5763 19.0767 16.623 19.0433 16.6795C19.01 16.7359 18.9923 16.8001 18.9922 16.8654V23.8196C18.9921 23.8521 19.0007 23.8841 19.0171 23.9123C19.0335 23.9405 19.0571 23.9639 19.0856 23.9803L21.4213 25.3175C21.4792 25.3506 21.5449 25.3677 21.6117 25.3672C21.6786 25.3667 21.744 25.3485 21.8013 25.3146L22.4612 24.923C22.4892 24.9063 22.5123 24.8827 22.5282 24.8546C22.5441 24.8264 22.5523 24.7946 22.552 24.7624C22.5516 24.7301 22.5428 24.6985 22.5263 24.6706C22.5098 24.6428 22.4863 24.6196 22.458 24.6035L20.4012 23.4401ZM20.2061 17.2631L20.9553 16.8186C20.9837 16.8018 21.0161 16.7927 21.0492 16.7923C21.0824 16.792 21.115 16.8003 21.1438 16.8164C21.1726 16.8326 21.1965 16.856 21.2131 16.8843C21.2298 16.9126 21.2385 16.9447 21.2384 16.9774V21.2449C21.2383 21.2776 21.2295 21.3096 21.2129 21.3379C21.1963 21.3661 21.1724 21.3895 21.1436 21.4056L20.3945 21.8269C20.366 21.8429 20.3337 21.8512 20.3009 21.8511C20.2682 21.8509 20.236 21.8423 20.2077 21.826C20.1794 21.8097 20.1559 21.7864 20.1395 21.7584C20.1232 21.7304 20.1146 21.6986 20.1146 21.6662V17.4222C20.1148 17.3902 20.1233 17.3588 20.1393 17.3309C20.1554 17.3031 20.1783 17.2798 20.2061 17.2631Z" fill="white"/>
<path d="M22.7373 15.5879V22.0809C22.7374 22.1134 22.7289 22.1454 22.7125 22.1736C22.6961 22.2018 22.6724 22.2253 22.6439 22.2416L21.145 23.0986C21.1167 23.1149 21.0931 23.1382 21.0768 23.1662C21.0605 23.1943 21.0518 23.226 21.0518 23.2584C21.0518 23.2907 21.0605 23.3225 21.0768 23.3505C21.0931 23.3786 21.1167 23.4019 21.145 23.4181L23.205 24.5944C23.2334 24.6106 23.257 24.6339 23.2734 24.662C23.2898 24.69 23.2984 24.7218 23.2984 24.7542C23.2984 24.7866 23.2898 24.8184 23.2734 24.8464C23.257 24.8745 23.2334 24.8978 23.205 24.914L19.2745 27.1602C19.2457 27.1764 19.2218 27.1997 19.2051 27.228C19.1885 27.2562 19.1797 27.2883 19.1797 27.3209C19.1797 27.3536 19.1885 27.3857 19.2051 27.4139C19.2218 27.4421 19.2457 27.4655 19.2745 27.4816L21.6168 28.8044C21.8434 28.9325 22.0999 28.9998 22.3611 28.9998C22.6222 28.9998 22.8788 28.9325 23.1054 28.8044L28.1615 25.9419C28.3329 25.8448 28.4754 25.7048 28.5744 25.536C28.6734 25.3672 28.7256 25.1757 28.7256 24.9806V19.2167C28.7256 18.9576 28.6565 18.703 28.5252 18.4785C28.3939 18.254 28.2051 18.0676 27.9777 17.9378L23.2986 15.2679C23.2417 15.2354 23.1772 15.2183 23.1115 15.2183C23.0458 15.2182 22.9812 15.2353 22.9243 15.2677C22.8674 15.3001 22.8201 15.3468 22.7873 15.4029C22.7545 15.4591 22.7372 15.5228 22.7373 15.5876V15.5879ZM27.3222 23.5405L24.0467 21.6657C23.99 21.6333 23.9429 21.5867 23.9102 21.5306C23.8775 21.4745 23.8602 21.4109 23.8602 21.3462V18.8881C23.8601 18.8556 23.8687 18.8236 23.8851 18.7955C23.9015 18.7673 23.9251 18.7439 23.9536 18.7276C23.9821 18.7113 24.0144 18.7027 24.0474 18.7026C24.0803 18.7026 24.1127 18.7111 24.1412 18.7274L26.8572 20.2808C27.0841 20.4107 27.2724 20.5971 27.4033 20.8213C27.5342 21.0456 27.6031 21.2998 27.6032 21.5586V23.3798C27.6032 23.4041 27.5985 23.4281 27.5891 23.4506C27.5798 23.473 27.566 23.4934 27.5487 23.5106C27.5313 23.5278 27.5107 23.5414 27.488 23.5507C27.4653 23.5601 27.441 23.5649 27.4164 23.5649C27.3833 23.565 27.3507 23.5563 27.3222 23.5397V23.5405Z" fill="white"/>
<path d="M20.9542 25.7818L20.1157 26.2518L20.1095 26.2481L18.8065 26.9959C18.7495 27.0285 18.6848 27.0457 18.6188 27.0457C18.5529 27.0457 18.4881 27.0285 18.4311 26.9959L16.746 26.0317C16.5206 25.9021 16.3334 25.7166 16.2031 25.4936L17.145 24.9555C17.1615 24.9855 17.1859 25.0105 17.2156 25.0279L18.1518 25.5683C18.1802 25.5846 18.2125 25.5931 18.2453 25.5931C18.2782 25.5931 18.3104 25.5846 18.3388 25.5683L18.3508 25.5616C18.3794 25.5454 18.4032 25.522 18.4198 25.4938C18.4363 25.4656 18.445 25.4335 18.445 25.4009C18.445 25.3683 18.4363 25.3363 18.4198 25.3081C18.4032 25.2799 18.3794 25.2565 18.3508 25.2402L17.5891 24.8045C17.5612 24.7884 17.5381 24.7656 17.5218 24.7381L18.6396 24.1001C18.656 24.1314 18.681 24.1575 18.7118 24.1754L20.9558 25.4593C20.9845 25.4756 21.0083 25.499 21.0248 25.5272C21.0413 25.5554 21.0501 25.5874 21.0501 25.62C21.0501 25.6526 21.0413 25.6846 21.0248 25.7129C21.0083 25.7411 20.9845 25.7645 20.9558 25.7807L20.9542 25.7818Z" fill="white"/>
<path d="M28.5813 25.5182C28.4824 25.6917 28.3379 25.8356 28.163 25.9346L23.1079 28.8025C22.8814 28.9308 22.6249 28.9983 22.3637 28.9983C22.1026 28.9983 21.846 28.9308 21.6196 28.8025L19.2776 27.4768C19.249 27.4605 19.2253 27.4371 19.2088 27.4089C19.1923 27.3807 19.1836 27.3487 19.1836 27.3161C19.1836 27.2835 19.1923 27.2515 19.2088 27.2233C19.2253 27.1951 19.249 27.1717 19.2776 27.1554L22.3652 25.3864L23.2081 24.9043C23.2368 24.8881 23.2606 24.8647 23.2772 24.8365C23.2938 24.8083 23.3026 24.7762 23.3026 24.7436C23.3026 24.711 23.2938 24.6789 23.2772 24.6507C23.2606 24.6225 23.2368 24.5991 23.2081 24.5829L22.3652 24.1008L21.1475 23.4045C21.1188 23.3883 21.095 23.3649 21.0784 23.3367C21.0618 23.3085 21.053 23.2764 21.053 23.2438C21.053 23.2111 21.0618 23.1791 21.0784 23.1509C21.095 23.1226 21.1188 23.0993 21.1475 23.0831L22.3655 22.3843L22.6464 22.2236C22.6723 22.2088 22.6941 22.188 22.71 22.1631L28.5813 25.5182Z" fill="white"/>
<path d="M22.4614 24.9011L22.3613 24.9603L21.8018 25.2929C21.7445 25.3269 21.679 25.345 21.6122 25.3456C21.5454 25.3461 21.4796 25.3289 21.4218 25.2959L19.0874 23.9594C19.0731 23.951 19.06 23.9408 19.0483 23.9291C19.0371 23.9181 19.0274 23.9055 19.0195 23.8919L19.5331 23.5973L20.3808 23.1128C20.3744 23.1176 20.3684 23.1229 20.3629 23.1286C20.3572 23.1339 20.3522 23.1397 20.3477 23.146C20.3467 23.1468 20.3459 23.148 20.3455 23.1492C20.3414 23.1541 20.3379 23.1594 20.3349 23.165C20.3335 23.1672 20.3323 23.1694 20.3311 23.1717C20.3292 23.1755 20.3273 23.1792 20.326 23.1827C20.3241 23.1862 20.3226 23.1899 20.3214 23.1937C20.3196 23.1977 20.3183 23.202 20.3173 23.2063C20.3161 23.2083 20.3155 23.2106 20.3154 23.213C20.314 23.2185 20.3129 23.2241 20.3121 23.2298C20.3065 23.2666 20.3122 23.3041 20.3286 23.3376C20.3449 23.3711 20.3712 23.3989 20.4039 23.4173L22.3637 24.5253L22.4603 24.5789C22.5034 24.6032 22.535 24.6434 22.5481 24.6907C22.5612 24.7379 22.5547 24.7884 22.5301 24.8309C22.5138 24.8598 22.4901 24.884 22.4614 24.9011Z" fill="white"/>
<path d="M33.5199 18.6091V25.511C33.5199 25.5353 33.5151 25.5593 33.5057 25.5817C33.4964 25.6041 33.4826 25.6245 33.4653 25.6416C33.4479 25.6588 33.4273 25.6724 33.4047 25.6817C33.382 25.691 33.3577 25.6958 33.3331 25.6958H31.063C30.7381 25.6961 30.4263 25.5695 30.1958 25.3437C30.0851 25.2339 29.9966 25.1042 29.9352 24.9617C29.8706 24.8111 29.8382 24.649 29.8399 24.4855V18.6091C29.8399 18.5849 29.8447 18.5609 29.854 18.5385C29.8634 18.5161 29.8772 18.4957 29.8945 18.4786C29.9118 18.4614 29.9324 18.4478 29.9551 18.4385C29.9778 18.4292 30.0021 18.4244 30.0267 18.4243H30.8763C30.9008 18.4244 30.9252 18.4292 30.9478 18.4385C30.9705 18.4478 30.9911 18.4614 31.0084 18.4786C31.0258 18.4957 31.0395 18.5161 31.0489 18.5385C31.0583 18.5609 31.0631 18.5849 31.063 18.6091V24.3005C31.063 24.3247 31.0678 24.3487 31.0772 24.3711C31.0865 24.3935 31.1003 24.4139 31.1176 24.431C31.135 24.4482 31.1556 24.4618 31.1782 24.4711C31.2009 24.4804 31.2252 24.4852 31.2498 24.4853H32.0999C32.1245 24.4852 32.1488 24.4804 32.1715 24.4711C32.1942 24.4618 32.2148 24.4482 32.2321 24.431C32.2495 24.4139 32.2632 24.3935 32.2726 24.3711C32.2819 24.3487 32.2867 24.3247 32.2867 24.3005V18.6091C32.2867 18.5849 32.2915 18.5609 32.3008 18.5385C32.3102 18.5161 32.3239 18.4957 32.3413 18.4786C32.3586 18.4614 32.3792 18.4478 32.4019 18.4385C32.4246 18.4292 32.4489 18.4244 32.4734 18.4243H33.3331C33.3577 18.4244 33.382 18.4292 33.4047 18.4385C33.4273 18.4478 33.4479 18.4614 33.4653 18.4786C33.4826 18.4957 33.4964 18.5161 33.5057 18.5385C33.5151 18.5609 33.5199 18.5849 33.5199 18.6091Z" fill="white"/>
<path d="M37.801 19.6324V21.4478C37.8027 21.6113 37.7703 21.7734 37.7058 21.924C37.6431 22.0684 37.553 22.1997 37.4403 22.3107C37.3269 22.4231 37.1922 22.5124 37.044 22.5737C36.8934 22.6366 36.7314 22.6686 36.5679 22.668H35.531C35.5064 22.668 35.4821 22.6728 35.4594 22.6821C35.4367 22.6914 35.4161 22.7051 35.3988 22.7222C35.3815 22.7394 35.3677 22.7597 35.3584 22.7821C35.349 22.8046 35.3442 22.8286 35.3442 22.8528V25.5091C35.3443 25.5333 35.3395 25.5573 35.3301 25.5797C35.3207 25.6021 35.307 25.6225 35.2896 25.6397C35.2723 25.6568 35.2517 25.6704 35.229 25.6798C35.2063 25.6891 35.182 25.6939 35.1575 25.6939H34.3079C34.2833 25.6939 34.259 25.6891 34.2363 25.6798C34.2136 25.6704 34.193 25.6568 34.1757 25.6397C34.1583 25.6225 34.1446 25.6021 34.1352 25.5797C34.1259 25.5573 34.1211 25.5333 34.1211 25.5091V18.6072C34.1211 18.5829 34.1259 18.5589 34.1352 18.5365C34.1446 18.5141 34.1583 18.4938 34.1757 18.4766C34.193 18.4595 34.2136 18.4458 34.2363 18.4365C34.259 18.4272 34.2833 18.4224 34.3079 18.4224H36.5679C36.7314 18.4217 36.8934 18.4538 37.044 18.5167C37.1912 18.5775 37.3257 18.665 37.4403 18.7746C37.5544 18.8844 37.6447 19.016 37.7058 19.1613C37.7693 19.3104 37.8017 19.4707 37.801 19.6324ZM36.5679 21.2632V19.817C36.5679 19.7927 36.5631 19.7687 36.5538 19.7463C36.5444 19.7239 36.5306 19.7036 36.5133 19.6864C36.496 19.6692 36.4754 19.6556 36.4527 19.6463C36.43 19.637 36.4057 19.6322 36.3811 19.6322H35.531C35.5064 19.6322 35.4821 19.637 35.4594 19.6463C35.4367 19.6556 35.4161 19.6692 35.3988 19.6864C35.3815 19.7036 35.3677 19.7239 35.3584 19.7463C35.349 19.7687 35.3442 19.7927 35.3442 19.817V21.2632C35.3442 21.2875 35.349 21.3115 35.3584 21.3339C35.3677 21.3563 35.3815 21.3766 35.3988 21.3938C35.4161 21.4109 35.4367 21.4246 35.4594 21.4339C35.4821 21.4432 35.5064 21.448 35.531 21.448H36.3811C36.4306 21.448 36.478 21.4286 36.513 21.3941C36.548 21.3596 36.5677 21.3128 36.5679 21.264V21.2632Z" fill="white"/>
<path d="M41.9925 19.6325V24.4834C41.9933 24.6452 41.9609 24.8054 41.8972 24.9545C41.8362 25.0998 41.7459 25.2314 41.6318 25.3413C41.5171 25.4509 41.3827 25.5384 41.2355 25.5992C41.0848 25.662 40.9229 25.6941 40.7593 25.6935H39.5357C39.3747 25.6937 39.2153 25.6625 39.0666 25.6017C38.9179 25.5409 38.7828 25.4518 38.6692 25.3393C38.5555 25.2269 38.4655 25.0934 38.4043 24.9465C38.3431 24.7996 38.3119 24.6422 38.3126 24.4834V23.7549C38.3125 23.7307 38.3173 23.7067 38.3267 23.6843C38.3361 23.6619 38.3498 23.6415 38.3671 23.6244C38.3845 23.6072 38.4051 23.5936 38.4278 23.5843C38.4504 23.575 38.4748 23.5702 38.4993 23.5701H39.3489C39.3735 23.5702 39.3978 23.575 39.4205 23.5843C39.4432 23.5936 39.4637 23.6072 39.4811 23.6244C39.4984 23.6415 39.5122 23.6619 39.5215 23.6843C39.5309 23.7067 39.5357 23.7307 39.5357 23.7549V24.2981C39.5356 24.3223 39.5404 24.3463 39.5498 24.3687C39.5592 24.3911 39.5729 24.4115 39.5903 24.4286C39.6076 24.4458 39.6282 24.4594 39.6509 24.4687C39.6736 24.478 39.6979 24.4828 39.7224 24.4829H40.5726C40.5972 24.4828 40.6215 24.478 40.6441 24.4687C40.6668 24.4594 40.6874 24.4458 40.7048 24.4286C40.7221 24.4115 40.7358 24.3911 40.7452 24.3687C40.7546 24.3463 40.7594 24.3223 40.7593 24.2981V22.8518C40.7594 22.8276 40.7546 22.8036 40.7452 22.7812C40.7358 22.7588 40.7221 22.7384 40.7048 22.7212C40.6874 22.7041 40.6668 22.6905 40.6441 22.6812C40.6215 22.6718 40.5972 22.667 40.5726 22.667H39.5357C39.3721 22.6677 39.2102 22.6356 39.0596 22.5727C38.9124 22.5123 38.7793 22.4228 38.6684 22.3097C38.5583 22.1976 38.47 22.0665 38.4078 21.923C38.3433 21.7724 38.3108 21.6103 38.3126 21.4468V19.6314C38.3119 19.4726 38.3431 19.3153 38.4043 19.1684C38.4655 19.0215 38.5555 18.888 38.6692 18.7755C38.7828 18.6631 38.9179 18.5739 39.0666 18.5131C39.2153 18.4524 39.3747 18.4212 39.5357 18.4214H40.7593C40.9229 18.4207 41.0849 18.4528 41.2355 18.5157C41.3827 18.5765 41.5171 18.664 41.6318 18.7736C41.7459 18.8834 41.8362 19.015 41.8972 19.1603C41.9609 19.3098 41.9933 19.4704 41.9925 19.6325ZM40.7593 21.2633V19.817C40.7594 19.7928 40.7546 19.7688 40.7452 19.7464C40.7358 19.724 40.7221 19.7036 40.7048 19.6865C40.6874 19.6693 40.6668 19.6557 40.6441 19.6464C40.6215 19.6371 40.5972 19.6323 40.5726 19.6322H39.7224C39.6979 19.6323 39.6736 19.6371 39.6509 19.6464C39.6282 19.6557 39.6076 19.6693 39.5903 19.6865C39.5729 19.7036 39.5592 19.724 39.5498 19.7464C39.5404 19.7688 39.5356 19.7928 39.5357 19.817V21.2633C39.5356 21.2876 39.5404 21.3116 39.5498 21.334C39.5592 21.3564 39.5729 21.3767 39.5903 21.3939C39.6076 21.411 39.6282 21.4247 39.6509 21.434C39.6736 21.4433 39.6979 21.4481 39.7224 21.4481H40.5726C40.6221 21.448 40.6695 21.4287 40.7045 21.3942C40.7395 21.3597 40.7592 21.3129 40.7593 21.2641V21.2633Z" fill="white"/>
</svg>
