<svg width="40" height="40" viewBox="0 0 40 40" fill="none" xmlns="http://www.w3.org/2000/svg">
<g clip-path="url(#clip0_816_5628)">
<path fill-rule="evenodd" clip-rule="evenodd" d="M-1.91237e-07 35.625C-8.56199e-08 38.0412 1.95875 40 4.375 40L35.625 40C38.0413 40 40 38.0412 40 35.625L40 4.375C40 1.95875 38.0413 -1.66284e-06 35.625 -1.55722e-06L4.375 -1.91237e-07C1.95875 -8.56199e-08 -1.66284e-06 1.95875 -1.55722e-06 4.375L-1.91237e-07 35.625ZM4.375 36.25C4.02983 36.25 3.75 35.9702 3.75 35.625L3.75 4.375C3.75 4.02975 4.02982 3.75 4.375 3.75L35.625 3.75C35.9702 3.75 36.25 4.02975 36.25 4.375L36.25 35.625C36.25 35.9702 35.9702 36.25 35.625 36.25L4.375 36.25Z" fill="#18253D"/>
<rect x="7.69238" y="7.69238" width="6.15385" height="3.84615" rx="1.92308" fill="#18253D"/>
<rect x="20" y="15.3845" width="6.15385" height="3.84615" rx="1.92308" fill="#18253D"/>
<rect x="7.69238" y="23.0769" width="6.15385" height="3.84615" rx="1.92308" fill="#18253D"/>
<path d="M33.8458 23.1316C33.8534 23.5518 33.694 23.9584 33.4013 24.2658L25.6676 31.8335C25.3569 32.1372 24.9357 32.3078 24.4965 32.3078C24.0574 32.3078 23.6362 32.1372 23.3254 31.8335L18.9062 27.5091C18.6135 27.2017 18.4541 26.7951 18.4617 26.375C18.4693 25.9548 18.6432 25.554 18.9468 25.2569C19.2504 24.9598 19.6601 24.7896 20.0894 24.7822C20.5187 24.7747 20.9342 24.9307 21.2484 25.2171L24.4965 28.3956L31.0591 21.9738C31.3732 21.6874 31.7887 21.5314 32.2181 21.5388C32.6474 21.5462 33.057 21.7164 33.3607 22.0135C33.6643 22.3107 33.8382 22.7115 33.8458 23.1316Z" fill="#18253D"/>
<path d="M15.3845 9.61546C15.3845 8.55337 16.2455 7.69238 17.3076 7.69238L30.3845 7.69238C31.4466 7.69238 32.3076 8.55337 32.3076 9.61546C32.3076 10.6775 31.4466 11.5385 30.3845 11.5385L17.3076 11.5385C16.2455 11.5385 15.3845 10.6775 15.3845 9.61546Z" fill="#18253D"/>
<path d="M7.69238 17.3076C7.69238 16.2455 8.55337 15.3845 9.61546 15.3845L16.5385 15.3845C17.6006 15.3845 18.4616 16.2455 18.4616 17.3076C18.4616 18.3697 17.6006 19.2307 16.5385 19.2307L9.61546 19.2307C8.55337 19.2307 7.69238 18.3697 7.69238 17.3076Z" fill="#18253D"/>
</g>
<defs>
<clipPath id="clip0_816_5628">
<rect width="40" height="40" fill="white" transform="translate(0 40) rotate(-90)"/>
</clipPath>
</defs>
</svg>
