<svg width="83" height="10" viewBox="0 0 83 10" fill="none" xmlns="http://www.w3.org/2000/svg">
<path d="M3.14485 9.78724L0 0.212776H3.24968L4.71728 4.78724L6.18488 0.212776H8.91042L10.4828 4.78724L11.8456 0.212776H14.9905L11.9504 9.78724H9.22491L7.54765 5.10639L5.87039 9.78724H3.14485Z" fill="#7D93BD"/>
<path d="M41.4073 0.212763L38.2625 9.78723H41.5121L42.9797 5.21276L44.4473 9.78723H47.1729L48.7453 5.21276L50.1081 9.78723H53.2529L50.2129 0.212763H47.4874L45.8101 4.89361L44.1328 0.212763H41.4073Z" fill="#ACBFE4"/>
<path d="M15.6194 0.212776H18.7642V9.78724H15.6194L15.6194 0.212776Z" fill="#7D93BD"/>
<path fill-rule="evenodd" clip-rule="evenodd" d="M37.6334 2.87235V0.212777L29.4568 0.212776V0.21278L29.4568 2.87235L29.4568 3.72341L29.4568 6.06384L29.4568 7.12767V9.78725H32.6016L37.6334 9.78725V7.12767L32.6016 7.12767V6.06384L37.2141 6.06384V3.72341L32.6016 3.72341V2.87235L37.6334 2.87235Z" fill="#7D93BD"/>
<path fill-rule="evenodd" clip-rule="evenodd" d="M21.9091 0.212776H25.4235C27.3036 0.212776 28.8277 1.73691 28.8277 3.61703C28.8277 4.92941 28.0851 6.06833 26.9972 6.63651L29.0374 9.78725H25.4732L23.6912 7.02129L23.6912 7.02129H22.9574V9.78725H19.8125V0.21278H21.9091V0.212776ZM22.9574 2.87234V4.78723H24.7254C25.2542 4.78723 25.6829 4.35857 25.6829 3.82978C25.6829 3.301 25.2542 2.87234 24.7254 2.87234H22.9574Z" fill="#7D93BD"/>
<path fill-rule="evenodd" clip-rule="evenodd" d="M57.1316 10C60.0263 10 62.373 7.76142 62.373 5C62.373 2.23858 60.0263 0 57.1316 0C54.2368 0 51.8901 2.23858 51.8901 5C51.8901 7.76142 54.2368 10 57.1316 10ZM59.0185 5.00001C59.0185 3.82493 58.1737 2.87235 57.1316 2.87235C56.0895 2.87235 55.2447 3.82493 55.2447 5.00001C55.2447 6.17508 56.0895 7.12767 57.1316 7.12767C58.1737 7.12767 59.0185 6.17508 59.0185 5.00001Z" fill="#ACBFE4"/>
<path fill-rule="evenodd" clip-rule="evenodd" d="M72.1772 7.50924C71.3059 8.99865 69.6826 10 67.824 10C65.045 10 62.7922 7.76142 62.7922 5C62.7922 2.23858 65.045 0 67.824 0C69.6704 0 71.2844 0.988175 72.1599 2.46132L69.4616 4.08947C69.1711 3.36993 68.547 2.87235 67.824 2.87235C66.8236 2.87235 66.0126 3.82493 66.0126 5.00001C66.0126 6.17508 66.8236 7.12767 67.824 7.12767C68.59 7.12767 69.245 6.56912 69.5099 5.77984L72.1772 7.50924Z" fill="#ACBFE4"/>
<path fill-rule="evenodd" clip-rule="evenodd" d="M76.0006 3.78175V0.212789H72.8557V9.78726H76.0006V7.79295L76.8493 6.80311L78.8309 9.78724H82.3951L78.9946 4.30108L82.4999 0.212776H78.7261L76.0006 3.78175Z" fill="#ACBFE4"/>
</svg>
